<svg xmlns="http://www.w3.org/2000/svg" width="111.188" height="61.207" viewBox="0 0 111.188 61.207">
  <g id="Group_3" data-name="Group 3" transform="translate(0 0)">
    <g id="Group_2" data-name="Group 2" transform="translate(37.553 0.608)">
      <path id="Path_3" data-name="Path 3" d="M601.395,633.317a6.818,6.818,0,0,1-.3-1.573,34.509,34.509,0,0,1,.032-5.543,87.1,87.1,0,0,1,1.7-9.813,6.757,6.757,0,0,1,.344-.955,1.192,1.192,0,0,1,1.561-.507c.187.112.181.287.124.488-.351,1.21-1.15,6.222-1.443,8.576a79.355,79.355,0,0,0-.517,8.266c.091-.429.954-3.477,1.2-4.385q.36-1.334.755-2.659c.549-1.825.752-2.327.766-2.356a.709.709,0,0,1,.685-.477c.716-.013.859.253.877.832a54.809,54.809,0,0,0,.542,5.683,5.78,5.78,0,0,0,.423,1.591,6.428,6.428,0,0,0,.857-2.735,29.714,29.714,0,0,0,.185-3.033,26.176,26.176,0,0,1,.135-2.781c.366-2.626,2.364-1.592,2.637-1.524,1.632.413,2.767-.036,3.161-.653a.976.976,0,0,1,1.262-.405c.4.158.118.686.049.8a2.338,2.338,0,0,1-.269.362,2.748,2.748,0,0,1-1.55.946,8.112,8.112,0,0,1-3.6.007c-.127.832-.153,5.636-.5,7.205-.21.944-.88,3-2.138,3.184-1.1.161-2.326-.868-2.55-3.829a25.713,25.713,0,0,1-1.733,5.43,1.737,1.737,0,0,1-2.214.554A1.2,1.2,0,0,1,601.395,633.317Z" transform="translate(-601.001 -599.324)" fill="#727272"/>
      <path id="Path_4" data-name="Path 4" d="M622.064,622.083c-.142.332-.237.664-.379,1-1.041,2.32-2.131,4.642-3.316,6.867a16.59,16.59,0,0,1-1.562,2.463,2.313,2.313,0,0,1-2.037.853,1.221,1.221,0,0,1-1.137-.853,5.771,5.771,0,0,1-.331-1.515,24.776,24.776,0,0,1,.378-5.305,48.436,48.436,0,0,1,1.706-6.868,9.068,9.068,0,0,1,.379-1.042.859.859,0,0,1,.853-.473c.615,0,.757.19.568.758a59.516,59.516,0,0,0-1.847,9.093,16.468,16.468,0,0,0-.237,3.411,6.113,6.113,0,0,0,.141,1.421,10.293,10.293,0,0,0,1.184-1.752c1.138-1.99,2.132-4.027,3.174-6.111a15.955,15.955,0,0,1,1.042-1.989.942.942,0,0,1,1.136-.474C622.017,621.657,622.16,621.8,622.064,622.083Zm-4.358-11.841c0-.237.285-.331.617-.285.283,0,.567.142.521.38,0,.284-.285.331-.616.284C617.943,610.621,617.659,610.478,617.706,610.241Z" transform="translate(-600.417 -599.555)" fill="#727272"/>
      <path id="Path_5" data-name="Path 5" d="M613.284,659.713a6.4,6.4,0,0,1-3.2-.28,4.535,4.535,0,0,1-2.591-2.315,8,8,0,0,1-.8-4.258,16.079,16.079,0,0,1,2.036-6.571,28.018,28.018,0,0,1,4.414-6.042,45.361,45.361,0,0,1,11.97-9.059c.583-.3,1.182-.578,1.788-.829a61.788,61.788,0,0,0,.149-9.813c-.191.479-.386.95-.449,1.106a36.3,36.3,0,0,1-2.683,5.513,8.345,8.345,0,0,1-1.04,1.424,2.4,2.4,0,0,1-1.534.786,1.19,1.19,0,0,1-1.478-.988,5.194,5.194,0,0,1-.09-1.753,15.873,15.873,0,0,1,1.619-5.8A7.927,7.927,0,0,1,623,618.6a4.257,4.257,0,0,1,2.35-1.2,2.393,2.393,0,0,1,1.634.227,3.856,3.856,0,0,1,.758.443c1.142-.122,1.3,1.925,1.29,2.024.023.242.044.485.065.726.025.195.045.4.054.619a42.588,42.588,0,0,1,.07,7.41c-.019.207-.006.419-.008.677a2.736,2.736,0,0,1,1.344-.141c.448.131.7.439.652.818a1,1,0,0,1-.374.7c-.156.113-.293.136-.462-.111a.915.915,0,0,0-1.295-.025.638.638,0,0,0-.063.233,54.818,54.818,0,0,1-1.787,9.553,41.9,41.9,0,0,1-5.457,12.534,19.358,19.358,0,0,1-4.35,4.772,9.462,9.462,0,0,1-4.139,1.859Zm1.18-1.478a12.009,12.009,0,0,0,3.02-2.308,18.941,18.941,0,0,0,1.262-1.431c5.2-7.527,7.249-16.236,8.019-22.881a4.86,4.86,0,0,0-.522.258,46.019,46.019,0,0,0-9.4,6.6,33.262,33.262,0,0,0-5.791,6.643,18.185,18.185,0,0,0-2.894,7.066,8.362,8.362,0,0,0,.3,4.139,4.653,4.653,0,0,0,1.149,1.883,2.71,2.71,0,0,0,2,.817A6.506,6.506,0,0,0,614.463,658.234Zm7.113-30.327c.272-.048.343-.262.442-.424.368-.614.729-1.232,1.064-1.862,1.158-2.178,1.9-4.525,2.839-6.788.062-.137.141-.285.007-.422a.6.6,0,0,0-.623-.195,1.909,1.909,0,0,0-.71.441,6.494,6.494,0,0,0-1.567,2.159,16.636,16.636,0,0,0-1.524,5.979,2.106,2.106,0,0,0,.072,1.114Z" transform="translate(-600.731 -599.202)" fill="#727272"/>
      <path id="Path_6" data-name="Path 6" d="M630.043,630.92c.117-.631.548-2.443,5.581-5.468.05-.029.126-.143-.015-.318-.344-.428-3.591-2.635-3.981-2.981a2.136,2.136,0,0,1-.752-2.391,2.52,2.52,0,0,1,.242-.526,6,6,0,0,1,2.855-2.441,4.213,4.213,0,0,1,2.592-.249,2.226,2.226,0,0,1,1.063.517.991.991,0,0,1,.341,1.12c-.093.273-.334.369-.657.26-.147-.05-.264-.128-.255-.289a.986.986,0,0,0-.028-.269c-.158-.651-.336-.683-1.008-.513a3.7,3.7,0,0,0-.9.366,5.452,5.452,0,0,0-2.109,2.049,2.654,2.654,0,0,0-.19.43c-.459,1.108,3.211,2.825,4.489,4.272l.293-.169a9.24,9.24,0,0,1,1.778-.969,6.284,6.284,0,0,1,1.476-.467,2.174,2.174,0,0,1,1,.052c.4.123.5.42.217.647a.985.985,0,0,1-.887.246.915.915,0,0,0-.686.109,10.875,10.875,0,0,0-2.1,1.5.63.63,0,0,0-.112.575,4.652,4.652,0,0,1-.535,3.875,7.171,7.171,0,0,1-5.144,2.91C630.164,633.089,629.926,631.573,630.043,630.92Zm2.324.6a6.659,6.659,0,0,0,3.374-1.975,3.378,3.378,0,0,0,.907-2.928,26.053,26.053,0,0,0-4.079,3.334,3.932,3.932,0,0,0-.695,1c-.053.12-.244.555.007.628A.945.945,0,0,0,632.367,631.52Z" transform="translate(-599.62 -599.245)" fill="#727272"/>
      <path id="Path_7" data-name="Path 7" d="M643.924,634.4a2.674,2.674,0,0,1-2.852-2.088h0c-1.3-3.722-.842-10.534-.118-14.215l0-.006a48.048,48.048,0,0,1,1.807-6.587,45.517,45.517,0,0,1,3.69-8.369c.465-.8,1.8-3.311,4.059-3.09a1.636,1.636,0,0,1,1.449,1.471,10.144,10.144,0,0,1-.221,3.986,36.366,36.366,0,0,1-4.314,10.8,48.12,48.12,0,0,1-4.966,7.174,2.054,2.054,0,0,0-.32,1.071c-.026.331-.051.6-.051.678a23.457,23.457,0,0,0,.775,6.188c.171-.673.281-.982.34-1.191a17.788,17.788,0,0,1,1.883-4.383,7.064,7.064,0,0,1,1.028-1.338,3.07,3.07,0,0,1,2.374-.817,1.643,1.643,0,0,1,1.229.562c.272.311.513.644.781.96a2.674,2.674,0,0,0,1.03.946,3.789,3.789,0,0,0,1.2-1.476c.332-.612.617-1.243.947-1.856a1.208,1.208,0,0,1,1.291-.633c.316.026.48.153.4.4a8.188,8.188,0,0,1-1.669,3.455,3.7,3.7,0,0,1-2.24,1.122,2.6,2.6,0,0,1-2.409-.77c-.267-.286-.489-.6-.734-.9-.15-.184-.23-.418-.519-.565a2.286,2.286,0,0,0-.616.773,19.41,19.41,0,0,0-2.18,5.253c-.167.611-.3,1.231-.427,1.849a2.819,2.819,0,0,0-.082.9c.049.432-.1.588-.564.7Zm-1.234-13.973a47.876,47.876,0,0,0,6.007-11.211,20.492,20.492,0,0,0,1.43-6.547,3.3,3.3,0,0,0-.279-1.489,3.024,3.024,0,0,0-.765.778,16.2,16.2,0,0,0-1.748,2.848A54.077,54.077,0,0,0,643,617.418a29.7,29.7,0,0,0-.539,3.18A.306.306,0,0,0,642.69,620.425Z" transform="translate(-599.133 -600.027)" fill="#727272"/>
      <path id="Path_8" data-name="Path 8" d="M654.151,631.709a2.057,2.057,0,0,1-.758-.806l-.284-.71a7.35,7.35,0,0,1-.425-2.7,20.961,20.961,0,0,1,.615-5.636,7.407,7.407,0,0,1,.71-1.848,5.468,5.468,0,0,0,.285-.8,4.65,4.65,0,0,1,.71-1.469,3.151,3.151,0,0,1,2.036-1.042,1.553,1.553,0,0,1,1.326.379,3.292,3.292,0,0,1,.853,1.657,18.5,18.5,0,0,1-.522,8.622,15.491,15.491,0,0,1-.71,2.084,6.388,6.388,0,0,1-.569,1.136,2.908,2.908,0,0,1-2.084,1.326A1.251,1.251,0,0,1,654.151,631.709Zm2.226-2.463a22.956,22.956,0,0,0,1.232-8.621,6.32,6.32,0,0,0-.426-2.084,1.453,1.453,0,0,0-.663-.758,3.837,3.837,0,0,0-.663,1.327c-.048.141-.048.236.047.284a1.929,1.929,0,0,1,.71,1.516c0,.284-.094.378-.426.521a1.689,1.689,0,0,1-.474.094c-.141-.047-.141-.237-.284-.331a7.357,7.357,0,0,0-.284,1.326.517.517,0,0,1-.191.472.574.574,0,0,0-.331.617,26.092,26.092,0,0,0-.1,3.836,6.731,6.731,0,0,0,.617,2.51,1.648,1.648,0,0,0,.615.711A8.681,8.681,0,0,0,656.377,629.246Z" transform="translate(-598.541 -599.235)" fill="#727272"/>
      <path id="Path_9" data-name="Path 9" d="M661.683,645.662a8.254,8.254,0,0,1-.729-2.244,52.915,52.915,0,0,1-.9-11.893,53.492,53.492,0,0,1,.994-8.684,35.117,35.117,0,0,1,1.2-4.534,7.465,7.465,0,0,1,.426-.966.9.9,0,0,1,1.315-.422.4.4,0,0,1,.2.472c-.045.222-.1.443-.163.658A32.855,32.855,0,0,0,662.9,623.2a20.8,20.8,0,0,1,1.866-2.8c1.3-1.664,3.194-2.865,4.568-2.507a2.488,2.488,0,0,1,1.782,1.789,6.344,6.344,0,0,1,.168,1.912c0,.093,0,.188-.011.281a.248.248,0,0,0,.11.231c.389.34.591.665.308,1.108a.351.351,0,0,1-.4.122c-.167-.049-.211.042-.251.191-.176.652-.413,1.606-.641,2.239a15.832,15.832,0,0,1-1.669,3.58,4.494,4.494,0,0,1-.937,1.049,2.025,2.025,0,0,1-2.281.285,1.5,1.5,0,0,1-.8-1,3.227,3.227,0,0,1-.1-1.153c.029-.333.091-.661.136-.975a7.432,7.432,0,0,1,4.734-5.5c.265-.1.267-.09.294-.4a8.932,8.932,0,0,0,.016-1.666,1.877,1.877,0,0,0-.263-1.015c-.341-.418-.982-.151-1.333.089a8.773,8.773,0,0,0-2.331,2.14,21.235,21.235,0,0,0-3.938,11.226c-.033.844-.065,1.856-.046,2.287q.033.965.086,1.928l.13,1.932q.041.512.087,1.025a28.933,28.933,0,0,0,.785,4.726c.182.7.341,1.4,1.026,1.747.2.1.141.385-.086.5A1.715,1.715,0,0,1,661.683,645.662Zm5.111-16.334a6.375,6.375,0,0,0,1.165-1.782,22.253,22.253,0,0,0,1.166-3.155,7.86,7.86,0,0,0,.306-1.3c-.124-.019-.029-.005-.089.031a6.98,6.98,0,0,0-3.34,4.072,4.895,4.895,0,0,0-.254,1.638,2.144,2.144,0,0,0,.157.8c.09.209.136.231.332.161C666.512,629.689,666.585,629.541,666.794,629.328Z" transform="translate(-598.192 -599.229)" fill="#727272"/>
    </g>
    <path id="Path_10" data-name="Path 10" d="M568.209,636.085a6.491,6.491,0,0,1-.821-3.588c-.028-.255-.137-.273-.558-.343-.9-.094-1.508-.5-1.65-1.115a1.744,1.744,0,0,1,1.138-1.847,2.568,2.568,0,0,1,1.041-.237c.279,0,.37-.206.394-.453.191-1.907.4-3.783.739-5.669a79.951,79.951,0,0,1,2.136-9.036,67.552,67.552,0,0,1,3.695-9.473c.71-1.469,2.369-4.879,4.547-4.879.853,0,1.232.237,1.279,1.137a6.579,6.579,0,0,1-.141,1.658,53.539,53.539,0,0,1-3.08,10.846,65.385,65.385,0,0,1-6.773,12.552c-.1.142-.053.586-.071.763-.024.256-.059.511-.088.767-.017.136-.032.272-.048.41-.048.425-.1.852-.146,1.278-.045.377.109.622.494.431a3.589,3.589,0,0,0,.522-.38c1.042-.947,2.036-1.894,2.985-2.935a51.283,51.283,0,0,0,3.457-4.453,2.713,2.713,0,0,0,.379-.616c.094-.141.094-.425.378-.425a1.216,1.216,0,0,1,.9.189.483.483,0,0,1,.238.475,2.955,2.955,0,0,1-.379,1.136,52.18,52.18,0,0,1-3.269,4.5c-1.007,1.125-2.124,2.134-3.185,3.206-.207.212-.553.417-.6.725a15.7,15.7,0,0,0,2.037,1.47c.379.188.757.426,1.137.615a1.6,1.6,0,0,0,1.753-.237,3.241,3.241,0,0,0,.9-.9,1.513,1.513,0,0,0,.237-1.184c-.1-.426,0-.522.331-.617a1.154,1.154,0,0,1,1.47,1.185,2.144,2.144,0,0,1-.38,1.042,3.975,3.975,0,0,1-3.22,1.8,5.919,5.919,0,0,1-3.552-.947c-1.279-.757-1.847-1-2.084-1.138a.474.474,0,0,0-.806.332,9.18,9.18,0,0,0,.163,3.04c.14.609.28,1.216,1.009,1.509a.21.21,0,0,1,.146.319c-.028.139-.189.155-.359.218A2.607,2.607,0,0,1,568.209,636.085Zm-.708-5.566c0-.047,0-.047-.047-.1-.19.143-.284.332-.142.522.047.047.047.047.094.047C567.642,630.9,567.5,630.661,567.5,630.519Zm10.894-29.556a.286.286,0,0,0-.19.047c-.141.189-.331.426-.522.663a28.16,28.16,0,0,0-2.841,5.589,84.489,84.489,0,0,0-4.405,14.92c0,.142-.094.237,0,.379C573.326,619.341,578.679,604.8,578.395,600.963Z" transform="translate(-565.154 -599.447)" fill="#727272"/>
    <path id="Path_11" data-name="Path 11" d="M581.451,619.612c.094-.09.218-.169.317-.256a4.727,4.727,0,0,0,1.615-2.226,2.246,2.246,0,0,0-.014-1.285c-.086-.256.01-.327.463-.362.868-.066,1.369.158,1.441.652a2.881,2.881,0,0,1,0,.393,3.593,3.593,0,0,1-1.231,2.5,4.634,4.634,0,0,1-1.184.755,2.171,2.171,0,0,1-1.166.136C581.337,619.874,581.269,619.785,581.451,619.612Z" transform="translate(-564.383 -598.684)" fill="#727272"/>
    <path id="Path_12" data-name="Path 12" d="M590.99,627.971a8.258,8.258,0,0,0-.877-1.368,11.937,11.937,0,0,0-1.848-1.483c-1.081-.766-2.2-1.557-1.987-2.068.021-.052.037-.092.05-.128a1.328,1.328,0,0,1,.107-.231,4.619,4.619,0,0,1,1.777-1.727,3.111,3.111,0,0,1,.749-.3c.274-.068.452-.1.545-.042.076.046.134.168.192.4a.747.747,0,0,1,.022.2c-.009.168.089.288.293.358a.63.63,0,0,0,.433.01.467.467,0,0,0,.272-.3.968.968,0,0,0-.325-1.081,2.033,2.033,0,0,0-.967-.471,3.738,3.738,0,0,0-2.3.221,5.3,5.3,0,0,0-2.512,2.149,2.233,2.233,0,0,0-.219.476,1.952,1.952,0,0,0,.68,2.177c.132.117.6.449,1.185.87a25.583,25.583,0,0,1,2.234,1.689,1.23,1.23,0,0,0,.151.139,1.889,1.889,0,0,1,.725,1.1,2.838,2.838,0,0,1-.758,2.426,5.08,5.08,0,0,1-1.77,1.272,6.053,6.053,0,0,1-.827.194,2.815,2.815,0,0,1-1.768-.267,4.466,4.466,0,0,1-1.44-1.183,5.636,5.636,0,0,1-1.136-3.106l0-.031c-.032-.6-.219-.909-.556-.909-.678,0-.723.417-.781.946a6.022,6.022,0,0,0,1.715,4.9A5.173,5.173,0,0,0,585.3,634l.05,0c.064,0,.126,0,.188,0a3.887,3.887,0,0,0,.465-.028,5.788,5.788,0,0,0,1.193-.271l.006.02a6.028,6.028,0,0,0,3.315-2.306A4.136,4.136,0,0,0,590.99,627.971Z" transform="translate(-564.434 -598.485)" fill="#727272"/>
  </g>
</svg>
