<svg xmlns="http://www.w3.org/2000/svg" width="50.909" height="51.439" viewBox="0 0 50.909 51.439">
  <path id="Path_1" data-name="Path 1" d="M-72.611,583.071a56.112,56.112,0,0,0-5.877-8.761L-74.4,568.1a.151.151,0,0,0-.068-.223l-6.551-2.714c-.054.717-.13,1.439-.226,2.184l3.657,1.544a.152.152,0,0,1,.065.228l-2.464,3.5a26.394,26.394,0,0,0-2.566-2.4c1.005-5.741.844-9.246.2-17.061a.113.113,0,0,0-.133-.1A56.208,56.208,0,0,0-92.619,556l-4.682-5.776a.152.152,0,0,0-.234,0l-4.57,5.42c.666.27,1.332.559,2.013.877l2.578-3.017a.152.152,0,0,1,.237.006l2.59,3.408a26.725,26.725,0,0,0-2.948,1.643c-5.158-2.741-8.538-3.674-16.18-5.484a.114.114,0,0,0-.14.093,56.367,56.367,0,0,0-.338,10.545l-6.942,2.661a.154.154,0,0,0-.075.223l3.736,6.025c.464-.55.946-1.094,1.459-1.643l-2.069-3.387a.15.15,0,0,1,.08-.222l4.043-1.407a26.131,26.131,0,0,0,.692,3.473c-4.088,3.858-6,6.7-10.117,13.216a.111.111,0,0,0,.042.161,56.057,56.057,0,0,0,9.863,3.748l.259,7.432a.152.152,0,0,0,.185.143l6.912-1.575c-.369-.618-.726-1.249-1.077-1.914l-3.877.858a.152.152,0,0,1-.184-.149l-.015-4.281a26.486,26.486,0,0,0,3.36.466c2.48,5.249,4.632,8.021,9.653,14.023a.114.114,0,0,0,.169.009,56.205,56.205,0,0,0,6.581-8.246l7.156,2.024a.152.152,0,0,0,.193-.133l.612-7.063c-.7.163-1.41.31-2.15.442l-.369,3.953a.152.152,0,0,1-.2.131l-4.081-1.293a26.607,26.607,0,0,0,1.519-3.183c5.741-.784,9.035-2,16.264-4.976A.11.11,0,0,0-72.611,583.071Zm-3.324-1.092c-3.784,1.462-5.678,2.59-12.153,3.425.579-2.851.178-5.56-1.97-7.672,1.255-.338,4.961-2.512,5.975-4.521a4.818,4.818,0,0,0-2.007-1.474c-1.962,3.431-7.028,3.888-8.1,4.257a.163.163,0,0,0-.05.283c9.313,7.418-1.165,18.084-3.736,21.79a.112.112,0,0,1-.181,0c-2.535-3.169-4.183-4.635-6.932-10.562,2.946-.3,5.456-1.5,6.831-4.233.705,1.093,3.907,3.956,6.13,4.308a4.816,4.816,0,0,0,.79-2.361c-3.867-.82-5.85-5.5-6.528-6.413a.164.164,0,0,0-.286.041c-4.216,11.133-17.574,4.417-21.889,3.1a.113.113,0,0,1-.059-.172c2.208-3.33,3.11-5.338,7.718-9.625,1.243,2.637,3.187,4.573,6.177,4.98-.8,1.022-2.47,4.98-2.081,7.2a4.822,4.822,0,0,0,2.491-.021c-.482-3.922,3.3-7.32,3.942-8.258a.164.164,0,0,0-.131-.258c-11.9-.369-9.891-15.184-10.05-19.692a.113.113,0,0,1,.143-.111c3.942,1.025,6.141,1.211,11.936,4.344-2.184,2.015-3.47,4.5-2.922,7.509-1.221-.448-5.5-.806-7.488.252a4.83,4.83,0,0,0,.791,2.361c3.58-1.674,7.985.872,9.075,1.189a.164.164,0,0,0,.2-.2c-3.338-11.428,11.371-14.108,15.609-15.657a.114.114,0,0,1,.151.1c.246,4.061.749,6.208-.429,12.675-2.547-1.417-5.256-1.855-7.92-.442.056-1.3-.9-5.485-2.509-7.058a4.819,4.819,0,0,0-2.01,1.469c2.681,2.905,1.588,7.874,1.617,9.007a.162.162,0,0,0,.255.133c9.881-6.642,16.891,6.563,19.65,10.133A.112.112,0,0,1-75.935,581.978Z" transform="translate(123.505 -550.166)" fill="#727272"/>
</svg>
